<?xml version="1.0" encoding="UTF-8"?>
<svg id="Camada_2" xmlns="http://www.w3.org/2000/svg" viewBox="0 0 117.18 128.18">
  <defs>
    <style>
      .cls-1 {
        fill: #ab302e;
      }
    </style>
  </defs>
  <g id="Layer_1">
    <g>
      <path class="cls-1" d="M30.12,1.71l6.09,12.33c.45.9,1.31,1.53,2.31,1.68l13.61,1.98c2.51.37,3.52,3.45,1.7,5.23l-9.85,9.6c-.72.7-1.05,1.72-.88,2.71l2.32,13.55c.43,2.5-2.2,4.41-4.45,3.23l-12.17-6.4c-.89-.47-1.96-.47-2.85,0l-12.17,6.4c-2.25,1.18-4.88-.73-4.45-3.23l2.32-13.55c.17-.99-.16-2.01-.88-2.71L.93,22.92c-1.82-1.77-.82-4.86,1.7-5.23l13.61-1.98c1-.15,1.86-.77,2.31-1.68L24.63,1.71c1.12-2.28,4.37-2.28,5.5,0Z"/>
      <path class="cls-1" d="M101.27,53.7c-8.69,2.23-15.71,5.58-22.08,8.41-3.19,1.42-6.22,2.73-9.24,3.78-3.02,1.05-6.01,1.86-9.19,2.32-2.91.42-5.77.61-8.54.61-9.04,0-17.2-2-23.05-4.02-2.92-1.01-5.26-2.02-6.84-2.76-.79-.37-1.39-.67-1.77-.87-.19-.1-.33-.18-.41-.22l-.08-.04c-2.89-1.65-6.72-.88-8.55,1.73-1.83,2.6-.97,6.05,1.92,7.7h0c.26.15,4.44,2.51,11.3,4.89,6.86,2.37,16.43,4.75,27.49,4.76,3.39,0,6.91-.23,10.52-.75,5.61-.82,10.6-2.42,15.22-4.25,6.93-2.76,13.09-5.96,19.78-8.38,5.75-2.08,11.88-3.65,19.44-4.07v-11.18c-5.86.27-11.13,1.13-15.9,2.35ZM20.06,85h0s0,0,0,0c0,0,0,0,0,0h-.01ZM20.06,60.89h0s0,0,0,0c0,0,0,0,0,0h-.01ZM20.06,109.1h0s0,0,0,0h0-.01ZM79.19,110.32c-3.19,1.42-6.22,2.73-9.24,3.78-3.02,1.05-6.01,1.86-9.19,2.32-2.91.42-5.77.61-8.54.61-9.04,0-17.2-2-23.05-4.02-2.92-1.01-5.26-2.02-6.84-2.76-.79-.37-1.39-.67-1.77-.87-.19-.1-.33-.18-.41-.22l-.08-.04c-2.89-1.65-6.72-.88-8.55,1.72-1.83,2.6-.97,6.05,1.92,7.7h0c.26.15,4.44,2.51,11.3,4.89,6.86,2.37,16.43,4.75,27.49,4.76,3.39,0,6.91-.23,10.52-.75,5.61-.82,10.6-2.42,15.22-4.25,6.93-2.76,13.09-5.96,19.78-8.38,5.75-2.08,11.88-3.65,19.44-4.07v-11.18c-5.86.27-11.13,1.13-15.9,2.35-8.69,2.23-15.71,5.58-22.08,8.41ZM79.19,86.21c-3.19,1.42-6.22,2.73-9.24,3.78-3.02,1.05-6.01,1.86-9.19,2.32-2.91.42-5.77.61-8.54.61-9.04,0-17.2-2-23.05-4.02-2.92-1.01-5.26-2.02-6.84-2.76-.79-.37-1.39-.67-1.77-.87-.19-.1-.33-.18-.41-.22l-.08-.04c-2.89-1.65-6.72-.88-8.55,1.73-1.83,2.6-.97,6.05,1.92,7.7h0c.26.15,4.44,2.51,11.3,4.89,6.86,2.37,16.43,4.75,27.49,4.76,3.39,0,6.91-.23,10.52-.75,5.61-.82,10.6-2.42,15.22-4.25,6.93-2.76,13.09-5.96,19.78-8.38,5.75-2.08,11.88-3.65,19.44-4.07v-11.18c-5.86.27-11.13,1.13-15.9,2.35-8.69,2.23-15.71,5.58-22.08,8.41Z"/>
    </g>
  </g>
</svg>