<?xml version="1.0" encoding="UTF-8"?>
<svg id="Camada_2" xmlns="http://www.w3.org/2000/svg" viewBox="0 0 32.8 32.8">
  <defs>
    <style>
      .cls-1 {
        fill: #cfc9c9;
      }
    </style>
  </defs>
  <g id="Layer_1">
    <g>
      <path class="cls-1" d="M16.4,32.07v-.73h0c-4.13,0-7.85-1.67-10.56-4.37-2.7-2.7-4.37-6.43-4.37-10.56h0c0-4.13,1.67-7.85,4.37-10.56,2.7-2.7,6.43-4.37,10.56-4.37h0c4.13,0,7.85,1.67,10.56,4.37,2.7,2.7,4.37,6.43,4.37,10.56h0c0,4.13-1.67,7.85-4.37,10.56-2.7,2.7-6.43,4.37-10.56,4.37h0v1.47c9.06,0,16.4-7.34,16.4-16.4h0C32.8,7.34,25.46,0,16.4,0h0,0C7.34,0,0,7.34,0,16.4h0c0,9.06,7.34,16.4,16.4,16.4h0v-.73Z"/>
      <path class="cls-1" d="M20.2,7.95h-7.6c-2.58,0-4.67,2.09-4.67,4.67v7.6c0,2.58,2.09,4.67,4.67,4.67h7.6c2.58,0,4.67-2.09,4.67-4.67v-7.6c0-2.58-2.09-4.67-4.67-4.67ZM23.5,20.21c0,1.83-1.49,3.32-3.32,3.32h-7.56c-1.83,0-3.32-1.49-3.32-3.32v-7.56c0-1.83,1.49-3.32,3.32-3.32h7.56c1.83,0,3.32,1.49,3.32,3.32v7.56Z"/>
      <path class="cls-1" d="M16.4,11.96c-2.47,0-4.47,2-4.47,4.47s2,4.47,4.47,4.47,4.47-2,4.47-4.47-2-4.47-4.47-4.47ZM16.4,19.34c-1.61,0-2.91-1.3-2.91-2.91s1.3-2.91,2.91-2.91,2.91,1.3,2.91,2.91-1.3,2.91-2.91,2.91Z"/>
      <path class="cls-1" d="M22.02,11.81c0,.55-.45,1-1,1s-1-.45-1-1,.45-1,1-1,1,.45,1,1Z"/>
    </g>
  </g>
</svg>