<?xml version="1.0" encoding="UTF-8"?>
<svg id="Camada_2" xmlns="http://www.w3.org/2000/svg" viewBox="0 0 32.8 32.8">
  <defs>
    <style>
      .cls-1 {
        fill: #cfc9c9;
      }
    </style>
  </defs>
  <g id="Layer_1">
    <g>
      <path class="cls-1" d="M16.4,32.07v-.73h0c-4.13,0-7.85-1.67-10.56-4.37-2.7-2.7-4.37-6.43-4.37-10.56,0-4.13,1.67-7.85,4.37-10.56,2.7-2.7,6.43-4.37,10.56-4.37h0c4.13,0,7.85,1.67,10.56,4.37,2.7,2.7,4.37,6.43,4.37,10.56,0,4.13-1.67,7.85-4.37,10.56-2.7,2.7-6.43,4.37-10.56,4.37h0v1.47c9.06,0,16.4-7.34,16.4-16.4C32.8,7.34,25.46,0,16.4,0h0,0C7.34,0,0,7.34,0,16.4c0,9.06,7.34,16.4,16.4,16.4h0v-.73Z"/>
      <path class="cls-1" d="M23.98,17.47v5.43h-3.15v-5.07c0-1.27-.45-2.14-1.6-2.14-.87,0-1.39.59-1.62,1.15-.08.2-.1.48-.1.77v5.29h-3.15s.04-8.59,0-9.48h3.15v1.34l-.02.03h.02v-.03c.42-.64,1.17-1.57,2.84-1.57,2.07,0,3.63,1.35,3.63,4.26ZM9.48,22.9h3.15v-9.48h-3.15v9.48ZM12.72,10.21c0,.9-.73,1.62-1.62,1.62s-1.62-.73-1.62-1.62.73-1.62,1.62-1.62,1.62.73,1.62,1.62Z"/>
    </g>
  </g>
</svg>