<?xml version="1.0" encoding="UTF-8"?>
<svg id="Camada_2" xmlns="http://www.w3.org/2000/svg" viewBox="0 0 10.47 13.78">
  <defs>
    <style>
      .cls-1 {
        fill: #cfc9c9;
        fill-rule: evenodd;
      }
    </style>
  </defs>
  <g id="Layer_1">
    <path class="cls-1" d="M9.16,4.8c0,1.09-.55,2.52-1.42,4.02-.81,1.4-1.79,2.69-2.51,3.57-.72-.88-1.7-2.18-2.51-3.57-.87-1.5-1.42-2.93-1.42-4.02,0-1.82,1.65-3.49,3.93-3.49s3.93,1.67,3.93,3.49ZM10.47,4.8c0,2.9-2.82,6.71-4.32,8.54-.48.59-1.35.59-1.84,0C2.82,11.51,0,7.7,0,4.8,0,2.15,2.34,0,5.24,0s5.24,2.15,5.24,4.8ZM6.55,5.24c0,.72-.59,1.31-1.31,1.31s-1.31-.59-1.31-1.31.59-1.31,1.31-1.31,1.31.59,1.31,1.31ZM7.86,5.24c0,1.45-1.17,2.62-2.62,2.62s-2.62-1.17-2.62-2.62,1.17-2.62,2.62-2.62,2.62,1.17,2.62,2.62Z"/>
  </g>
</svg>