<?xml version="1.0" encoding="UTF-8"?>
<svg id="Camada_2" xmlns="http://www.w3.org/2000/svg" viewBox="0 0 12.44 12.44">
  <defs>
    <style>
      .cls-1 {
        fill: #cfc9c9;
      }
    </style>
  </defs>
  <g id="Layer_1">
    <path class="cls-1" d="M10.62,1.82c-2.43-2.43-6.37-2.43-8.8,0-2.43,2.43-2.43,6.37,0,8.8,2.43,2.43,6.37,2.43,8.8,0,1.17-1.17,1.82-2.75,1.82-4.4,0-1.65-.66-3.23-1.82-4.4ZM9.42,8.67s0,0,0,0h0s-.32.31-.32.31c-.41.41-1,.58-1.57.45-.57-.15-1.11-.39-1.6-.72-.46-.29-.88-.63-1.26-1.02-.35-.35-.67-.73-.94-1.14-.3-.44-.54-.93-.71-1.43-.19-.6-.03-1.25.41-1.69l.37-.37c.1-.1.27-.1.37,0,0,0,0,0,0,0l1.17,1.17c.1.1.1.27,0,.37h0s-.68.69-.68.69c-.2.19-.22.5-.06.73.25.34.52.66.82.96.33.33.69.64,1.08.91.22.16.52.13.72-.06l.66-.67c.1-.1.27-.1.37,0h0s1.17,1.17,1.17,1.17c.1.1.1.27,0,.37Z"/>
  </g>
</svg>