<?xml version="1.0" encoding="UTF-8"?>
<svg id="Camada_2" xmlns="http://www.w3.org/2000/svg" viewBox="0 0 32.8 32.8">
  <defs>
    <style>
      .cls-1 {
        fill-rule: evenodd;
      }

      .cls-1, .cls-2 {
        fill: #cfc9c9;
      }
    </style>
  </defs>
  <g id="Layer_1">
    <g>
      <path class="cls-2" d="M16.4,32.07v-.73h0c-4.13,0-7.85-1.67-10.56-4.37-2.7-2.7-4.37-6.43-4.37-10.56h0c0-4.13,1.67-7.86,4.37-10.56,2.7-2.7,6.43-4.37,10.56-4.37h0c4.13,0,7.85,1.67,10.56,4.37,2.7,2.7,4.37,6.43,4.37,10.56,0,4.13-1.67,7.85-4.37,10.56-2.7,2.7-6.43,4.37-10.56,4.37v1.47c9.06,0,16.4-7.34,16.4-16.4C32.8,7.34,25.46,0,16.4,0h0C7.34,0,0,7.34,0,16.4h0c0,9.06,7.34,16.4,16.4,16.4h0v-.73Z"/>
      <path class="cls-1" d="M24.51,13.39c0-1.35-1.09-2.45-2.45-2.45h-11.47c-1.35,0-2.45,1.09-2.45,2.45v6.56c0,1.35,1.09,2.45,2.45,2.45h11.47c1.35,0,2.45-1.1,2.45-2.45v-6.56ZM14.7,19.43v-6.16l4.67,3.08-4.67,3.08Z"/>
    </g>
  </g>
</svg>